<svg width="30" height="25" viewBox="0 0 30 25" fill="none" xmlns="http://www.w3.org/2000/svg">
<path d="M28.4015 0.565258C28.0696 0.332991 27.6951 0.168398 27.2996 0.0808803C26.904 -0.00663735 26.495 -0.0153649 26.0961 0.0551968C25.6971 0.125759 25.316 0.274226 24.9744 0.49212C24.6329 0.710014 24.3376 0.993064 24.1055 1.3251L12.3773 18.0745L4.68748 12.8217C4.07073 12.3998 3.31165 12.2402 2.57722 12.378C1.8428 12.5158 1.19319 12.9397 0.771311 13.5564C0.34943 14.1732 0.189832 14.9323 0.327628 15.6667C0.465423 16.4011 0.889324 17.0507 1.50608 17.4726L11.8139 24.5132C12.1314 24.7299 12.4901 24.8788 12.8678 24.9505C13.2454 25.0222 13.6338 25.0152 14.0086 24.9299C14.4084 24.8601 14.7904 24.712 15.1328 24.4941C15.4753 24.2763 15.7713 23.993 16.004 23.6606L29.1619 4.8637C29.6308 4.1925 29.8141 3.36258 29.6714 2.55631C29.5288 1.75004 29.0719 1.0334 28.4011 0.563852" fill="white"/>
</svg>
