<svg width="142" height="135" viewBox="0 0 142 135" fill="none" xmlns="http://www.w3.org/2000/svg">
<g filter="url(#filter0_d_205_321)">
<rect x="19.9058" y="17.4232" width="94.1884" height="97.1168" stroke="white" stroke-width="5"/>
<rect x="17.4058" y="8" width="41.1884" height="6.92317" fill="white"/>
<rect x="116.594" y="110.117" width="8.4058" height="6.92317" fill="white"/>
<rect x="14.0435" y="25.308" width="6.72464" height="91.7321" fill="white"/>
<rect x="9" y="53.8661" width="6.72464" height="63.174" fill="white"/>
<path d="M95.0335 67.0721C95.0335 82.7872 82.6917 95.4998 67.5001 95.4998C52.3086 95.4998 39.9668 82.7872 39.9668 67.0721C39.9668 51.357 52.3086 38.6444 67.5001 38.6444C82.6917 38.6444 95.0335 51.357 95.0335 67.0721Z" fill="white" fill-opacity="0.5" stroke="white"/>
<path d="M88.0251 67.0723C88.0251 78.7933 78.8211 88.2681 67.5001 88.2681C56.1791 88.2681 46.9751 78.7933 46.9751 67.0723C46.9751 55.3513 56.1791 45.8765 67.5001 45.8765C78.8211 45.8765 88.0251 55.3513 88.0251 67.0723Z" fill="white" fill-opacity="0.5" stroke="white"/>
<path d="M81.0167 67.0724C81.0167 74.7994 74.9504 81.0363 67.5001 81.0363C60.0497 81.0363 53.9834 74.7994 53.9834 67.0724C53.9834 59.3455 60.0497 53.1086 67.5001 53.1086C74.9504 53.1086 81.0167 59.3455 81.0167 67.0724Z" fill="white" fill-opacity="0.5" stroke="white"/>
<path d="M73.8682 67.0726C73.8682 70.8054 70.9397 73.8045 67.3599 73.8045C63.7801 73.8045 60.8516 70.8054 60.8516 67.0726C60.8516 63.3397 63.7801 60.3406 67.3599 60.3406C70.9397 60.3406 73.8682 63.3397 73.8682 67.0726Z" fill="white" fill-opacity="0.5" stroke="white"/>
<path d="M57.2458 58.6266L57.3133 58.5678L57.3563 58.4893L68.1099 38.8243L83.4555 54.1087L74.2427 66.9251L74.0665 67.1702L74.2013 67.4402L81.2005 81.4645L67.8537 88.4203L50.8851 89.4794L41.0198 72.7452L57.2458 58.6266Z" fill="white" fill-opacity="0.5" stroke="white"/>
</g>
<defs>
<filter id="filter0_d_205_321" x="0.7" y="0.7" width="140.6" height="133.64" filterUnits="userSpaceOnUse" color-interpolation-filters="sRGB">
<feFlood flood-opacity="0" result="BackgroundImageFix"/>
<feColorMatrix in="SourceAlpha" type="matrix" values="0 0 0 0 0 0 0 0 0 0 0 0 0 0 0 0 0 0 127 0" result="hardAlpha"/>
<feOffset dx="4" dy="5"/>
<feGaussianBlur stdDeviation="6.15"/>
<feComposite in2="hardAlpha" operator="out"/>
<feColorMatrix type="matrix" values="0 0 0 0 1 0 0 0 0 1 0 0 0 0 1 0 0 0 0.25 0"/>
<feBlend mode="normal" in2="BackgroundImageFix" result="effect1_dropShadow_205_321"/>
<feBlend mode="normal" in="SourceGraphic" in2="effect1_dropShadow_205_321" result="shape"/>
</filter>
</defs>
</svg>
