<svg width="25" height="26" viewBox="0 0 25 26" fill="none" xmlns="http://www.w3.org/2000/svg">
<path d="M3.79313 5.7619H10.6897C11.0555 5.7619 11.4063 5.91442 11.665 6.1859C11.9237 6.45738 12.069 6.82559 12.069 7.20952C12.069 7.59345 11.9237 7.96166 11.665 8.23314C11.4063 8.50462 11.0555 8.65714 10.6897 8.65714H3.79313C3.42731 8.65714 3.07648 8.50462 2.81781 8.23314C2.55914 7.96166 2.41382 7.59345 2.41382 7.20952C2.41382 6.82559 2.55914 6.45738 2.81781 6.1859C3.07648 5.91442 3.42731 5.7619 3.79313 5.7619ZM13.4483 17.3429H20.3449C20.7107 17.3429 21.0615 17.4954 21.3202 17.7669C21.5788 18.0383 21.7242 18.4065 21.7242 18.7905C21.7242 19.1744 21.5788 19.5426 21.3202 19.8141C21.0615 20.0856 20.7107 20.2381 20.3449 20.2381H13.4483C13.0825 20.2381 12.7317 20.0856 12.473 19.8141C12.2143 19.5426 12.069 19.1744 12.069 18.7905C12.069 18.4065 12.2143 18.0383 12.473 17.7669C12.7317 17.4954 13.0825 17.3429 13.4483 17.3429ZM3.79313 11.5524H20.3449C20.7107 11.5524 21.0615 11.7049 21.3202 11.9764C21.5788 12.2479 21.7242 12.6161 21.7242 13C21.7242 13.3839 21.5788 13.7521 21.3202 14.0236C21.0615 14.2951 20.7107 14.4476 20.3449 14.4476H3.79313C3.42731 14.4476 3.07648 14.2951 2.81781 14.0236C2.55914 13.7521 2.41382 13.3839 2.41382 13C2.41382 12.6161 2.55914 12.2479 2.81781 11.9764C3.07648 11.7049 3.42731 11.5524 3.79313 11.5524Z" fill="#EDEDF5"/>
</svg>
