<svg width="1512" height="27" viewBox="0 0 1512 27" fill="none" xmlns="http://www.w3.org/2000/svg">
<path fill-rule="evenodd" clip-rule="evenodd" d="M1517 0H-26V10.7378H59.4774L66.8468 1.12172L66.8621 1.14655L66.8806 1.12172L79.7132 19.1178H90.0971L96.2474 10.862H319.566V10.8587L392.646 10.8177L394.302 8.60342L391.634 5.02559H396.983L394.302 8.60342L395.99 10.862H399.077L406.352 1.12172L406.361 1.13359L406.367 1.12172L425.696 27L435.951 13.2846L568.682 13.2436L571.005 16.3507L577.956 7.04015L582.593 13.2436L642.273 13.2846L648.09 5.49738H675.118L685.292 19.1178H689.317L714.429 18.9699L719.383 25.6041L726.814 15.6511L730.587 10.5834H796.255L798.911 7.03583L794.494 1.12172H803.338L798.911 7.03583L801.562 10.5834H918.575L925.944 1.12172L925.959 1.14655L925.978 1.12172L938.811 19.1178H949.194L955.344 10.862H1178.66V10.8361L1211.56 10.8177L1213.22 8.60342L1210.55 5.02559H1215.9L1213.22 8.60342L1214.9 10.862H1217.99L1225.27 1.12172L1225.28 1.13359L1225.28 1.12172L1244.61 27L1254.87 13.2846L1347.41 13.2436L1349.74 16.3507L1356.69 7.04015L1361.33 13.2436L1421.01 13.2846L1426.82 5.49738H1453.85L1464.02 19.1178H1468.05L1493.16 18.9699L1498.12 25.6041L1505.55 15.6511L1509.32 10.7184H1517V0ZM15.8113 6.71194H11.6355V1.12172H15.8113V6.71194ZM29.7409 6.71194H28.3498V1.12172H29.7409V6.71194ZM39.4827 6.71194H38.0916V1.12172H39.4827V6.71194ZM41.5947 6.71194H40.2011V1.12172H41.5947V6.71194ZM689.231 13.7391H687.838V11.8768H689.231V13.7391ZM689.231 10.0112H687.838V8.14891H689.231V10.0112ZM700.028 13.7391H698.634V8.14891H700.028V13.7391ZM705.365 13.7391H703.971V11.8768H705.365V13.7391ZM874.909 6.71194H870.733V1.12172H874.909V6.71194ZM888.838 6.71194H887.447V1.12172H888.838V6.71194ZM898.58 6.71194H897.19V1.12172H898.58V6.71194ZM900.692 6.71194H899.298V1.12172H900.692V6.71194ZM1467.96 13.7391H1466.57V11.8768H1467.96V13.7391ZM1467.96 10.0112H1466.57V8.14891H1467.96V10.0112ZM1478.76 13.7391H1477.37V8.14891H1478.76V13.7391ZM1484.1 13.7391H1482.7V11.8768H1484.1V13.7391ZM574.303 20.7544L571.005 16.3507L567.716 20.7544H574.303ZM796.233 10.6126H801.583L801.562 10.5834H796.255L796.233 10.6126ZM1353.04 20.7544L1349.74 16.3507L1346.45 20.7544H1353.04Z" fill="#121211"/>
</svg>
